<svg version="1.1" id="Layer_1" xmlns="http://www.w3.org/2000/svg" xmlns:xlink="http://www.w3.org/1999/xlink" x="0px" y="0px"
	 width="100%" viewBox="0 0 500 500" enable-background="new 0 0 500 500" xml:space="preserve">
<path fill="#C5DDFF" opacity="1.000000" stroke="none" 
	d="
M277.000000,501.000000 
	C184.666687,501.000000 92.833374,501.000000 1.000049,501.000000 
	C1.000033,334.333405 1.000033,167.666794 1.000016,1.000139 
	C167.666565,1.000093 334.333130,1.000093 500.999756,1.000046 
	C500.999847,167.666519 500.999847,334.333038 500.999939,500.999786 
	C426.500000,501.000000 352.000000,501.000000 277.000000,501.000000 
M215.093979,349.967865 
	C209.276352,349.931213 203.456741,349.973358 197.641922,349.826080 
	C194.541122,349.747528 193.814865,350.975037 194.962219,353.892548 
	C196.911194,353.994568 198.829193,354.095001 201.229568,354.220673 
	C201.229568,358.611115 201.229568,362.686707 201.229568,366.765381 
	C203.839432,366.765381 205.937286,366.765381 208.584167,366.765381 
	C208.584167,362.469055 208.584167,358.407593 208.584167,354.235199 
	C211.429626,354.098022 213.732391,353.987030 216.187729,354.743866 
	C216.357056,359.175201 215.582916,364.227020 220.976944,366.204010 
	C225.923111,368.016846 231.402557,368.610748 235.653900,364.963837 
	C240.337372,360.946320 237.877563,355.228149 238.255539,350.165649 
	C235.579391,350.165649 233.506927,350.165649 231.057220,350.165649 
	C231.057220,353.098846 231.503876,355.834564 230.900299,358.314667 
	C230.497528,359.969696 228.599213,361.260742 227.370209,362.714722 
	C226.133743,361.264282 224.200821,359.974487 223.820724,358.326508 
	C223.220093,355.722290 223.660812,352.877899 223.660812,349.709167 
	C220.566574,349.927155 218.280060,350.088226 215.093979,349.967865 
M417.788147,353.275421 
	C418.036682,350.827820 417.196442,349.696930 414.477539,349.808929 
	C409.684448,350.006409 404.872559,349.994965 400.077820,349.818542 
	C396.837280,349.699310 396.477448,351.122009 397.397980,353.805450 
	C399.478455,354.004669 401.517273,354.199921 403.871521,354.425354 
	C403.871521,358.726807 403.871521,362.643738 403.871521,366.632141 
	C406.423920,366.632141 408.597961,366.632141 411.251526,366.632141 
	C411.251526,362.218140 411.251526,358.179108 411.251526,353.998718 
	C413.886993,353.998718 416.033295,353.998718 418.652588,354.593292 
	C419.901703,356.941986 421.150818,359.290680 422.461060,361.754303 
	C421.386719,361.879852 419.899902,362.053619 418.262329,362.244995 
	C421.740021,367.829071 427.019135,368.032562 432.053528,366.906586 
	C434.645355,366.326904 437.290924,363.895935 438.775543,361.574554 
	C439.306244,360.744751 436.491119,357.775116 435.095673,355.615875 
	C435.894989,355.376068 437.335022,354.944031 438.812439,354.500763 
	C434.604156,347.711700 424.979889,347.598419 417.788147,353.275421 
M156.832520,227.088409 
	C156.800491,221.932083 156.768463,216.775772 156.886475,210.759491 
	C156.886475,207.065079 156.886475,203.370667 156.886475,198.443359 
	C138.924423,217.909164 123.111893,237.112732 113.278259,260.492035 
	C109.967514,268.363251 108.056053,276.514832 108.684784,285.241394 
	C109.418518,295.425323 114.536621,302.307709 123.995499,305.171448 
	C129.584351,306.863464 135.987411,308.088593 141.581985,307.077087 
	C153.246033,304.968140 164.616409,301.234924 176.597244,298.831390 
	C196.622894,325.032928 222.783142,338.885254 256.101471,337.902222 
	C303.710632,336.497620 342.358795,297.166931 342.975555,249.499329 
	C343.219055,230.679474 343.034210,211.854126 343.068176,193.031342 
	C343.070221,191.905884 343.283844,190.780823 343.399017,189.655579 
	C343.655029,189.676605 343.911011,189.697632 344.166992,189.718674 
	C346.814606,200.952499 349.462250,212.186310 352.127960,223.496964 
	C356.337280,221.537201 357.670471,218.648422 357.192749,214.466919 
	C356.778809,210.843430 356.857727,207.140854 357.014557,203.485916 
	C357.079681,201.968948 357.499329,200.095749 358.474243,199.057083 
	C361.748352,195.568771 362.134430,193.140762 356.416809,192.304077 
	C357.256378,186.261047 353.829865,179.958282 359.498199,174.985840 
	C359.819061,174.704361 358.055298,172.046494 357.261749,170.494659 
	C356.736664,170.682465 356.211609,170.870270 355.686523,171.058060 
	C355.686523,165.896774 355.897675,160.723709 355.610474,155.578445 
	C355.426666,152.285629 356.318146,149.949783 358.867462,147.796249 
	C364.207794,143.285019 369.797302,138.909729 374.322845,133.651077 
	C377.155121,130.360001 378.986877,125.718994 379.894287,121.395470 
	C380.833801,116.918816 378.007172,114.139008 373.426666,115.055862 
	C368.917603,115.958435 364.147430,117.729919 360.546143,120.493866 
	C354.904144,124.824081 350.195465,130.358765 345.002197,135.289276 
	C341.359833,138.747391 336.600037,137.982574 334.438904,133.739578 
	C314.200195,94.004601 274.520599,75.286781 231.098236,84.991364 
	C189.934021,94.191254 158.996399,132.794373 158.992584,174.965866 
	C158.990570,197.286957 158.636566,219.616409 159.161270,241.925171 
	C159.382080,251.313766 161.462494,260.658630 161.983154,270.586517 
	C159.681396,270.782684 157.374054,271.193207 155.078964,271.133423 
	C149.009552,270.975372 146.578354,268.547333 148.135849,262.626404 
	C149.452103,257.622559 152.446915,253.063339 154.667023,248.292511 
	C155.487213,246.529984 156.789886,244.752808 156.877350,242.934448 
	C157.115738,237.977173 156.823471,232.994370 156.832520,227.088409 
M354.169617,357.709137 
	C355.259674,355.263275 356.349701,352.817413 357.421021,350.413666 
	C348.047943,347.320251 349.542450,356.112122 346.130096,359.954712 
	C344.859558,357.015594 343.900665,354.362793 342.560577,351.919006 
	C342.050751,350.989227 340.627899,349.957642 339.688263,350.018005 
	C338.506622,350.093872 336.929901,350.972351 336.343384,351.981110 
	C334.913361,354.440582 333.955994,357.174866 332.663574,360.129425 
	C329.571838,355.515442 330.456055,347.276672 321.249420,350.404816 
	C323.463684,355.027039 325.485168,359.744873 327.995972,364.186066 
	C328.752625,365.524506 330.903046,366.862122 332.351929,366.796967 
	C333.754059,366.733948 335.479767,365.115417 336.336517,363.730469 
	C337.611603,361.669220 338.247650,359.212646 339.451782,356.177826 
	C340.733887,359.392365 341.503632,361.947052 342.765961,364.229279 
	C343.417725,365.407654 344.975861,366.876831 346.068634,366.832672 
	C347.690338,366.767151 349.714539,365.851868 350.746674,364.614044 
	C352.189514,362.883636 352.876556,360.523071 354.169617,357.709137 
M185.522079,350.948883 
	C185.522079,353.848267 185.522079,356.747650 185.522079,360.719543 
	C179.459122,355.650208 176.939789,346.407410 167.394867,350.543365 
	C167.394867,355.957336 167.394867,361.367096 167.394867,366.779999 
	C169.805801,366.779999 171.905930,366.779999 174.186005,366.779999 
	C174.336884,363.396332 174.477203,360.249481 174.653290,356.300690 
	C180.450333,361.319244 182.905472,370.195496 192.545074,366.361633 
	C192.545074,361.152313 192.545074,355.744720 192.545074,349.856018 
	C190.180191,349.978149 188.083939,350.086395 185.522079,350.948883 
M254.614670,362.477325 
	C256.822418,365.779877 259.134888,368.831329 263.596527,366.451111 
	C263.265930,364.097076 262.073792,361.510773 262.802734,359.696198 
	C265.020355,354.175812 263.789795,350.809479 257.858307,350.249115 
	C252.308060,349.724701 246.669342,350.136871 240.733795,350.136871 
	C240.733795,353.046875 240.733780,355.692169 240.733780,358.337463 
	C240.733780,361.123718 240.733795,363.909973 240.733795,366.780640 
	C243.308701,366.780640 245.409103,366.780640 247.777954,366.780640 
	C247.897675,365.163605 248.002350,363.749695 248.117981,362.187866 
	C250.228790,362.187866 252.024475,362.187866 254.614670,362.477325 
M116.539948,357.704865 
	C116.422844,353.575378 114.126183,351.008575 110.238251,350.607910 
	C104.246735,349.990417 98.195236,349.954956 92.275330,349.677582 
	C92.275330,355.993591 92.275330,361.378967 92.275330,366.858765 
	C97.556839,366.858765 102.533646,367.146179 107.463303,366.786835 
	C113.785118,366.326019 115.673569,364.348663 116.539948,357.704865 
M144.368591,365.071381 
	C144.952316,365.711487 145.524292,366.895111 146.121582,366.908020 
	C152.387909,367.043549 158.658295,366.991730 165.111877,366.991730 
	C164.982742,365.300049 164.897308,364.180908 164.814621,363.097626 
	C160.317276,362.813690 156.039505,362.543610 151.761719,362.273499 
	C151.818771,361.623688 151.875824,360.973877 151.932877,360.324036 
	C155.288986,360.162384 158.645081,360.000732 162.807770,359.800232 
	C160.406036,354.063568 154.156235,359.241974 151.220184,354.412628 
	C155.876999,354.194550 159.832657,354.009277 163.788315,353.824005 
	C164.076431,353.453552 164.364563,353.083069 164.652695,352.712616 
	C163.704300,351.762299 162.792450,350.036682 161.801483,349.989960 
	C156.180725,349.725006 150.541046,349.861694 144.350342,349.861694 
	C144.350342,354.900970 144.350342,359.522400 144.368591,365.071381 
M83.115196,355.258270 
	C82.319336,353.991272 81.621437,352.647980 80.706711,351.473541 
	C78.932358,349.195404 73.631630,348.999542 72.010826,351.360046 
	C68.650238,356.254181 65.563675,361.336487 62.364452,366.341431 
	C62.500126,367.063385 62.635799,367.785339 62.771473,368.507294 
	C71.789207,362.042267 80.840538,363.700623 89.902321,367.885620 
	C89.995544,367.356445 90.088768,366.827240 90.181992,366.298065 
	C87.961960,362.825531 85.741920,359.352997 83.115196,355.258270 
M315.755829,367.006836 
	C317.368866,367.006836 318.981903,367.006836 321.367096,367.006836 
	C317.782074,361.402588 314.683319,356.335999 311.343506,351.433624 
	C309.733551,349.070374 304.340088,349.062408 302.731506,351.421295 
	C299.387329,356.325287 296.284943,361.394135 292.552887,367.223602 
	C295.710266,366.905334 298.288086,367.337646 300.059601,366.339264 
	C305.744812,363.135345 310.671753,363.105225 315.755829,367.006836 
M358.764130,365.374725 
	C360.128601,367.630219 362.877747,366.835083 365.910095,365.785736 
	C369.506958,364.541016 373.724640,364.573395 377.611938,364.866333 
	C380.211945,365.062286 382.705078,366.676544 386.293365,368.059875 
	C385.542908,366.002869 385.483734,365.673340 385.317932,365.411285 
	C382.738556,361.334717 380.171478,357.250000 377.548767,353.201355 
	C374.331665,348.235138 369.651123,348.311340 366.388367,353.363373 
	C363.951508,357.136505 361.542603,360.927643 358.764130,365.374725 
M273.525177,355.373627 
	C277.535065,354.695312 281.544952,354.016998 286.870300,353.116150 
	C285.539825,351.771698 284.635590,350.045258 283.654755,350.000610 
	C277.924957,349.739655 272.177246,349.872650 266.426697,349.872650 
	C266.426697,355.936859 266.426697,361.321808 266.426697,366.779694 
	C273.331940,366.779694 279.915558,366.779694 286.499176,366.779694 
	C286.791138,366.382416 287.083130,365.985107 287.375092,365.587830 
	C286.300964,364.667358 285.322571,363.138275 284.133118,362.951263 
	C281.538666,362.543304 278.830017,362.925659 276.182434,362.757996 
	C275.208527,362.696350 274.275208,361.994629 273.323364,361.584869 
	C274.875916,360.294678 276.109161,360.112122 277.347992,360.058075 
	C278.840363,359.992950 280.359772,360.187775 281.823486,359.971863 
	C282.583374,359.859772 283.248505,359.105164 283.956421,358.640839 
	C283.212921,358.038177 282.530762,357.031433 281.714600,356.907562 
	C279.128967,356.515137 276.493317,356.452576 273.525177,355.373627 
M121.515800,358.008179 
	C122.900391,360.468445 123.729866,363.792755 125.828751,365.141266 
	C127.848694,366.439026 132.711227,366.872131 133.664154,365.635254 
	C137.195435,361.051819 139.627884,355.621796 142.532013,350.404114 
	C132.235123,347.314819 134.193985,357.600769 129.841003,360.656342 
	C125.710495,357.297516 127.503067,347.268280 117.408264,350.403839 
	C118.671692,352.776672 119.893623,355.071594 121.515800,358.008179 
M387.748566,363.366455 
	C387.480286,369.797333 391.969757,366.059662 394.564636,366.992340 
	C394.564636,361.027039 394.564636,355.539429 394.564636,350.214233 
	C392.128021,350.214233 390.068298,350.214233 387.748047,350.214233 
	C387.748047,354.507812 387.748047,358.452209 387.748566,363.366455 
z"/>
<path fill="#0F2A51" opacity="1.000000" stroke="none" 
	d="
M162.697556,270.023376 
	C161.462494,260.658630 159.382080,251.313766 159.161270,241.925171 
	C158.636566,219.616409 158.990570,197.286957 158.992584,174.965866 
	C158.996399,132.794373 189.934021,94.191254 231.098236,84.991364 
	C274.520599,75.286781 314.200195,94.004601 334.438904,133.739578 
	C336.600037,137.982574 341.359833,138.747391 345.002197,135.289276 
	C350.195465,130.358765 354.904144,124.824081 360.546143,120.493866 
	C364.147430,117.729919 368.917603,115.958435 373.426666,115.055862 
	C378.007172,114.139008 380.833801,116.918816 379.894287,121.395470 
	C378.986877,125.718994 377.155121,130.360001 374.322845,133.651077 
	C369.797302,138.909729 364.207794,143.285019 358.867462,147.796249 
	C356.318146,149.949783 355.426666,152.285629 355.610474,155.578445 
	C355.897675,160.723709 355.686523,165.896774 355.686523,171.058060 
	C356.211609,170.870270 356.736664,170.682465 357.261749,170.494659 
	C358.055298,172.046494 359.819061,174.704361 359.498199,174.985840 
	C353.829865,179.958282 357.256378,186.261047 356.416809,192.304077 
	C362.134430,193.140762 361.748352,195.568771 358.474243,199.057083 
	C357.499329,200.095749 357.079681,201.968948 357.014557,203.485916 
	C356.857727,207.140854 356.778809,210.843430 357.192749,214.466919 
	C357.670471,218.648422 356.337280,221.537201 352.127960,223.496964 
	C349.462250,212.186310 346.814606,200.952499 344.166992,189.718674 
	C343.911011,189.697632 343.655029,189.676605 343.399017,189.655579 
	C343.283844,190.780823 343.070221,191.905884 343.068176,193.031342 
	C343.034210,211.854126 343.219055,230.679474 342.975555,249.499329 
	C342.358795,297.166931 303.710632,336.497620 256.101471,337.902222 
	C222.783142,338.885254 196.622894,325.032928 176.657822,298.330292 
	C180.168167,296.198456 183.617950,294.567749 187.168121,293.258057 
	C198.703094,307.613495 212.921555,317.720154 230.270844,322.940491 
	C280.735016,338.124908 336.528564,298.103790 334.949371,243.894455 
	C334.290924,221.291687 334.964905,198.650085 335.374207,176.044815 
	C335.135559,174.078598 334.555786,172.093689 333.605042,168.838730 
	C331.762360,171.069778 330.919373,172.090393 330.036652,173.098083 
	C329.996918,173.085159 330.079468,173.082458 329.808289,173.091888 
	C329.336060,173.379562 329.135040,173.657806 328.971741,173.957611 
	C329.009460,173.979156 328.947083,173.917496 328.643555,173.924469 
	C327.913971,174.317596 327.487854,174.703781 327.030334,175.048447 
	C326.998962,175.006943 327.075653,175.076828 326.821350,175.108398 
	C326.364502,175.402649 326.161957,175.665359 325.674011,176.135284 
	C321.460907,178.338593 320.696320,181.578064 320.748016,185.807693 
	C320.973907,204.291809 320.962128,222.781097 320.823181,241.266891 
	C320.575958,274.160828 297.452423,302.195526 265.198914,308.186096 
	C239.148209,313.024597 217.362106,304.572998 199.707077,285.266144 
	C200.911301,284.448547 201.798828,283.871582 202.932312,283.685120 
	C206.518707,288.439301 209.678085,287.038818 213.369980,284.233063 
	C222.920486,276.974915 229.291428,266.253876 240.142502,260.342133 
	C244.593048,257.917480 248.250610,254.037308 252.568741,250.579147 
	C252.544144,255.250137 258.575134,259.764191 251.702560,264.153595 
	C255.070404,267.182007 258.085999,269.893646 261.287537,272.772552 
	C259.823486,273.738586 259.002411,274.280334 258.008850,274.935944 
	C260.364502,276.774658 262.344055,278.319794 265.100464,280.471313 
	C262.555695,280.854614 261.218628,281.056000 259.160248,281.366028 
	C261.177063,282.831329 262.596832,283.862823 264.016571,284.894318 
	C263.787689,285.323822 263.558838,285.753326 263.329956,286.182861 
	C259.248474,285.760803 255.166977,285.338745 251.085495,284.916718 
	C250.947235,285.367371 250.808975,285.818054 250.670731,286.268707 
	C255.112335,288.242798 259.553955,290.216858 263.987427,292.443909 
	C263.970581,292.865356 263.961945,293.033844 263.544128,293.173462 
	C260.047913,292.683472 256.960846,292.222382 253.873810,291.761261 
	C253.786331,292.143219 253.698868,292.525177 253.611404,292.907135 
	C255.731934,294.640350 257.852478,296.373566 260.716217,298.714233 
	C257.395905,299.063171 255.394211,299.273529 253.392548,299.483856 
	C253.255615,299.954407 253.118683,300.424957 252.981750,300.895477 
	C255.475098,302.449646 258.175385,305.596161 260.428711,305.303345 
	C276.845337,303.169952 290.495209,295.420258 301.426758,283.017090 
	C302.376526,281.939453 302.334534,279.987671 302.882996,277.962769 
	C308.002289,276.457855 313.959137,265.980896 313.968018,258.117188 
	C315.221405,254.047226 316.857697,249.908249 316.929291,245.742401 
	C317.269592,225.944290 317.192352,206.138870 317.220215,186.335983 
	C317.221405,185.490906 316.791473,184.645187 316.458466,183.416275 
	C311.610413,187.227295 306.995239,190.521393 302.832703,194.312485 
	C301.419250,195.599792 300.487427,198.138824 300.481537,200.109283 
	C300.465759,205.419800 301.247711,210.729614 301.322815,216.045212 
	C301.348022,217.828873 300.196777,219.629166 299.116150,222.786713 
	C297.270050,219.404663 296.294647,217.518570 295.229187,215.684799 
	C292.177155,210.431824 289.088623,205.200073 285.838684,199.670181 
	C279.568604,195.556717 273.474274,191.733032 267.379913,187.909363 
	C267.491791,187.317474 267.603699,186.725586 267.715576,186.133698 
	C269.781219,185.769821 271.901428,184.915543 273.901855,185.138046 
	C279.011505,185.706421 284.107208,186.575104 289.130371,187.679062 
	C292.100159,188.331726 294.081177,187.608505 296.092712,185.377258 
	C302.321106,178.468597 308.744446,171.735718 315.295776,164.784012 
	C315.655365,164.168060 315.811249,163.702713 315.920105,163.143921 
	C315.873047,163.050491 316.049652,162.938339 316.222717,162.873093 
	C316.613525,162.682404 316.788818,162.512970 317.222290,162.133179 
	C319.311737,160.897354 321.100525,159.827927 322.889313,158.758484 
	C322.512512,158.071075 322.135742,157.383667 321.758942,156.696259 
	C318.490662,154.476242 315.222412,152.256241 311.974609,150.016632 
	C311.995117,149.997055 311.969238,150.046783 311.957458,149.756088 
	C311.614990,149.320358 311.284302,149.175323 310.976807,149.015137 
	C311.000000,149.000000 310.969513,149.046234 310.958923,148.755585 
	C310.618744,148.316513 310.289154,148.168106 309.980408,148.009247 
	C310.001251,147.998779 309.985992,148.042847 309.923645,147.734390 
	C309.290741,147.220551 308.720245,147.015167 308.135315,146.857758 
	C308.120911,146.905746 308.085724,146.811920 307.889587,146.552063 
	C307.056976,146.161148 306.420563,146.030106 305.464844,145.825439 
	C304.952087,145.650391 304.758606,145.548981 304.500610,145.335968 
	C304.276367,145.134476 304.107910,145.113159 303.640808,145.128906 
	C303.199768,144.975143 303.048645,144.852921 302.702820,144.547302 
	C301.990631,144.260239 301.473145,144.156555 300.580444,144.035706 
	C290.369141,140.852554 280.533020,137.686554 270.367676,134.414581 
	C272.539581,130.428589 274.742615,128.593109 279.242523,129.486282 
	C285.708527,130.769699 292.346069,131.188721 299.130035,131.816162 
	C299.104553,131.140594 298.859436,130.625595 298.319641,129.976929 
	C281.642090,115.234093 262.813324,107.857819 240.793839,112.078621 
	C216.441772,116.746536 199.547485,130.830994 190.575424,154.471375 
	C190.238632,155.459824 190.115097,156.246063 189.761444,157.315216 
	C188.723679,163.434525 187.916031,169.270905 187.036804,175.509689 
	C187.011703,177.276215 187.058197,178.640366 187.036591,180.366455 
	C187.013565,181.460403 187.058640,182.192383 187.024139,183.321533 
	C186.993164,184.786682 187.041779,185.854645 187.009735,187.390152 
	C186.929108,209.735580 186.929108,231.613464 186.929108,254.601273 
	C189.633591,252.663773 191.268860,250.821091 191.932495,251.121918 
	C197.802994,253.783066 198.244919,248.313797 200.413971,245.657623 
	C204.195862,241.026398 207.692291,236.160217 211.527878,231.576187 
	C212.304413,230.648148 214.054306,230.534546 215.155518,230.355408 
	C213.928757,232.862061 212.912949,235.064041 211.872070,237.254105 
	C210.797729,239.514572 211.661255,240.250381 213.996323,239.987991 
	C214.064819,240.058426 214.205368,240.195755 214.174103,240.576874 
	C213.528870,247.265991 209.532776,249.629562 203.832932,251.459473 
	C200.138733,252.645477 197.277863,256.427216 194.024933,259.022339 
	C194.006256,258.998779 194.035889,259.047577 193.801575,259.125793 
	C193.272537,259.388092 193.081665,259.648346 192.678329,260.164062 
	C190.536392,261.051147 188.710770,261.758911 186.716232,262.088501 
	C185.600708,256.491150 183.892090,251.280060 183.836349,246.051361 
	C183.561249,220.250397 183.299500,194.433258 183.999771,168.648056 
	C184.200684,161.250458 186.546829,153.427490 189.751892,146.673981 
	C209.835449,104.355164 263.717163,93.873917 298.717468,125.109444 
	C300.165771,126.401970 301.737488,127.565552 303.315125,128.701111 
	C304.805328,129.773743 306.379211,130.730072 307.916290,131.737564 
	C313.896484,137.807755 316.546539,128.639557 323.168152,128.935486 
	C318.211151,123.342979 314.373413,118.041466 309.602539,113.786087 
	C274.959167,82.885910 225.525406,84.591736 193.133469,117.822754 
	C179.210037,132.106857 170.298508,149.026627 170.020599,169.370850 
	C169.672638,194.844025 169.755295,220.329559 170.143173,245.802277 
	C170.255737,253.195496 172.050964,260.563080 172.738434,268.131348 
	C169.167206,268.887970 165.932388,269.455688 162.697556,270.023376 
M341.908539,181.456635 
	C341.740875,181.164032 341.501648,180.952377 341.033630,180.243057 
	C340.475800,179.702972 339.917999,179.162888 339.030518,178.289368 
	C338.776947,178.348007 338.523376,178.406647 338.269836,178.465271 
	C338.439850,178.711563 338.609894,178.957855 338.977203,179.766190 
	C339.561005,180.269943 340.144836,180.773697 341.000458,181.677856 
	C341.212769,181.937408 341.481537,182.107910 341.828735,182.728806 
	C342.011688,183.147400 342.194672,183.565979 342.377655,183.984558 
	C342.541016,183.804993 342.877502,183.560867 342.838654,183.456726 
	C342.639008,182.921417 342.342896,182.422043 341.908539,181.456635 
M322.016052,130.481049 
	C321.632690,131.872009 321.249329,133.262985 320.813873,134.843048 
	C322.294830,134.843048 323.720245,134.843048 325.831604,134.843048 
	C324.523804,132.881302 323.535492,131.398788 322.016052,130.481049 
M256.541382,273.555237 
	C256.541382,273.555237 256.495605,273.478302 256.541382,273.555237 
z"/>
<path fill="#F5A40B" opacity="1.000000" stroke="none" 
	d="
M202.686371,283.294647 
	C201.798828,283.871582 200.911301,284.448547 199.424866,285.429382 
	C194.906540,288.201172 190.987137,290.569092 187.067719,292.937012 
	C183.617950,294.567749 180.168167,296.198456 176.412933,297.999146 
	C164.616409,301.234924 153.246033,304.968140 141.581985,307.077087 
	C135.987411,308.088593 129.584351,306.863464 123.995499,305.171448 
	C114.536621,302.307709 109.418518,295.425323 108.684784,285.241394 
	C108.056053,276.514832 109.967514,268.363251 113.278259,260.492035 
	C123.111893,237.112732 138.924423,217.909164 156.886475,198.443359 
	C156.886475,203.370667 156.886475,207.065079 156.527527,211.374817 
	C142.110077,225.090332 130.824524,240.280624 123.673767,258.104553 
	C120.893143,265.035522 119.699310,272.788544 118.922607,280.285217 
	C118.164337,287.604126 122.434059,293.116394 129.376129,294.794159 
	C135.692581,296.320709 142.555206,297.004883 148.995361,296.329010 
	C166.415039,294.500793 181.622040,286.419647 196.237640,277.369080 
	C227.547516,257.980835 254.903702,233.709595 281.400848,207.912140 
	C283.163971,205.204468 284.589203,202.582230 286.014404,199.959976 
	C289.088623,205.200073 292.177155,210.431824 295.229187,215.684799 
	C296.294647,217.518570 297.270050,219.404663 299.116150,222.786713 
	C300.196777,219.629166 301.348022,217.828873 301.322815,216.045212 
	C301.247711,210.729614 300.465759,205.419800 300.481537,200.109283 
	C300.487427,198.138824 301.419250,195.599792 302.832703,194.312485 
	C306.995239,190.521393 311.610413,187.227295 316.458466,183.416275 
	C316.791473,184.645187 317.221405,185.490906 317.220215,186.335983 
	C317.192352,206.138870 317.269592,225.944290 316.929291,245.742401 
	C316.857697,249.908249 315.221405,254.047226 313.976074,258.085999 
	C313.646057,257.973419 313.514740,258.038757 313.316254,257.739655 
	C309.650848,253.317215 306.253448,249.131317 302.651367,245.129639 
	C302.021301,244.429672 300.530792,244.504257 299.612671,244.060425 
	C299.573486,243.414383 299.359314,242.929047 299.440613,242.066650 
	C298.853271,241.083038 297.970490,240.476501 297.081024,239.912537 
	C297.074371,239.955093 297.160522,239.953186 297.479553,239.665787 
	C296.060028,237.463776 294.331909,233.983597 292.580658,233.971924 
	C289.291809,233.949966 285.989624,235.932678 282.080750,237.295151 
	C280.949738,236.017136 279.551361,234.437027 278.087524,232.612091 
	C277.769470,232.156815 277.516876,231.946381 277.167175,231.384308 
	C275.473145,229.725021 274.007141,228.185791 272.236725,227.185211 
	C270.892883,226.425690 269.161530,226.351822 267.331665,226.136505 
	C247.681015,247.645828 226.649323,267.125641 202.686371,283.294647 
z"/>
<path fill="#102A4F" opacity="1.000000" stroke="none" 
	d="
M281.062927,207.997559 
	C254.903702,233.709595 227.547516,257.980835 196.237640,277.369080 
	C181.622040,286.419647 166.415039,294.500793 148.995361,296.329010 
	C142.555206,297.004883 135.692581,296.320709 129.376129,294.794159 
	C122.434059,293.116394 118.164337,287.604126 118.922607,280.285217 
	C119.699310,272.788544 120.893143,265.035522 123.673767,258.104553 
	C130.824524,240.280624 142.110077,225.090332 156.452515,211.804794 
	C156.768463,216.775772 156.800491,221.932083 156.520157,227.723663 
	C149.969940,237.330704 143.155716,245.971130 137.729385,255.409470 
	C134.874969,260.374298 133.838242,266.656952 133.098434,272.486359 
	C132.388580,278.079834 135.849258,282.004395 141.524124,283.021057 
	C145.049683,283.652649 148.980179,284.141113 152.328506,283.227081 
	C160.620972,280.963257 168.991287,278.529419 176.781357,274.964325 
	C201.841339,263.495789 224.386139,247.815445 246.717148,231.851654 
	C247.683945,231.160522 248.309601,229.992157 249.067352,229.029541 
	C249.040527,229.012985 249.009338,229.068268 249.366913,229.190765 
	C250.333054,228.885315 250.941605,228.457352 251.866287,227.978333 
	C256.380371,224.490234 260.578339,221.053162 264.992188,217.367767 
	C269.172089,214.246765 273.068634,211.272034 277.148468,208.574478 
	C278.144836,207.915680 279.742004,208.165497 281.062927,207.997559 
z"/>
<path fill="#2F96D8" opacity="1.000000" stroke="none" 
	d="
M249.094162,229.046097 
	C248.309601,229.992157 247.683945,231.160522 246.717148,231.851654 
	C224.386139,247.815445 201.841339,263.495789 176.781357,274.964325 
	C168.991287,278.529419 160.620972,280.963257 152.328506,283.227081 
	C148.980179,284.141113 145.049683,283.652649 141.524124,283.021057 
	C135.849258,282.004395 132.388580,278.079834 133.098434,272.486359 
	C133.838242,266.656952 134.874969,260.374298 137.729385,255.409470 
	C143.155716,245.971130 149.969940,237.330704 156.474609,228.190308 
	C156.823471,232.994370 157.115738,237.977173 156.877350,242.934448 
	C156.789886,244.752808 155.487213,246.529984 154.667023,248.292511 
	C152.446915,253.063339 149.452103,257.622559 148.135849,262.626404 
	C146.578354,268.547333 149.009552,270.975372 155.078964,271.133423 
	C157.374054,271.193207 159.681396,270.782684 162.340363,270.304932 
	C165.932388,269.455688 169.167206,268.887970 173.101944,268.090393 
	C178.162949,266.062561 182.524033,264.264618 186.885132,262.466675 
	C188.710770,261.758911 190.536392,261.051147 192.901794,260.069214 
	C193.732239,259.619507 193.930359,259.370361 194.035889,259.047577 
	C194.035889,259.047577 194.006256,258.998779 194.398911,259.008789 
	C200.718948,256.108582 206.742371,253.375168 212.539719,250.225601 
	C216.364273,248.147812 219.863678,245.471481 223.912308,243.154327 
	C231.510406,238.811386 238.704865,234.377258 246.233154,229.922791 
	C247.409393,229.617004 248.251770,229.331543 249.094162,229.046097 
z"/>
<path fill="#132D54" opacity="1.000000" stroke="none" 
	d="
M354.028290,358.070618 
	C352.876556,360.523071 352.189514,362.883636 350.746674,364.614044 
	C349.714539,365.851868 347.690338,366.767151 346.068634,366.832672 
	C344.975861,366.876831 343.417725,365.407654 342.765961,364.229279 
	C341.503632,361.947052 340.733887,359.392365 339.451782,356.177826 
	C338.247650,359.212646 337.611603,361.669220 336.336517,363.730469 
	C335.479767,365.115417 333.754059,366.733948 332.351929,366.796967 
	C330.903046,366.862122 328.752625,365.524506 327.995972,364.186066 
	C325.485168,359.744873 323.463684,355.027039 321.249420,350.404816 
	C330.456055,347.276672 329.571838,355.515442 332.663574,360.129425 
	C333.955994,357.174866 334.913361,354.440582 336.343384,351.981110 
	C336.929901,350.972351 338.506622,350.093872 339.688263,350.018005 
	C340.627899,349.957642 342.050751,350.989227 342.560577,351.919006 
	C343.900665,354.362793 344.859558,357.015594 346.130096,359.954712 
	C349.542450,356.112122 348.047943,347.320251 357.421021,350.413666 
	C356.349701,352.817413 355.259674,355.263275 354.028290,358.070618 
z"/>
<path fill="#163157" opacity="1.000000" stroke="none" 
	d="
M185.754883,350.571777 
	C188.083939,350.086395 190.180191,349.978149 192.545074,349.856018 
	C192.545074,355.744720 192.545074,361.152313 192.545074,366.361633 
	C182.905472,370.195496 180.450333,361.319244 174.653290,356.300690 
	C174.477203,360.249481 174.336884,363.396332 174.186005,366.779999 
	C171.905930,366.779999 169.805801,366.779999 167.394867,366.779999 
	C167.394867,361.367096 167.394867,355.957336 167.394867,350.543365 
	C176.939789,346.407410 179.459122,355.650208 185.522079,360.719543 
	C185.522079,356.747650 185.522079,353.848267 185.754883,350.571777 
z"/>
<path fill="#102B51" opacity="1.000000" stroke="none" 
	d="
M254.217422,362.332581 
	C252.024475,362.187866 250.228790,362.187866 248.117981,362.187866 
	C248.002350,363.749695 247.897675,365.163605 247.777954,366.780640 
	C245.409103,366.780640 243.308701,366.780640 240.733795,366.780640 
	C240.733795,363.909973 240.733780,361.123718 240.733780,358.337463 
	C240.733780,355.692169 240.733795,353.046875 240.733795,350.136871 
	C246.669342,350.136871 252.308060,349.724701 257.858307,350.249115 
	C263.789795,350.809479 265.020355,354.175812 262.802734,359.696198 
	C262.073792,361.510773 263.265930,364.097076 263.596527,366.451111 
	C259.134888,368.831329 256.822418,365.779877 254.217422,362.332581 
M247.935074,355.502563 
	C249.677826,358.911804 253.767517,358.926849 257.598969,354.627045 
	C253.900330,354.627045 250.989227,354.627045 247.935074,355.502563 
z"/>
<path fill="#142F56" opacity="1.000000" stroke="none" 
	d="
M418.069580,354.111176 
	C424.979889,347.598419 434.604156,347.711700 438.812439,354.500763 
	C437.335022,354.944031 435.894989,355.376068 435.095673,355.615875 
	C436.491119,357.775116 439.306244,360.744751 438.775543,361.574554 
	C437.290924,363.895935 434.645355,366.326904 432.053528,366.906586 
	C427.019135,368.032562 421.740021,367.829071 418.262329,362.244995 
	C419.899902,362.053619 421.386719,361.879852 422.461060,361.754303 
	C421.150818,359.290680 419.901703,356.941986 418.388824,354.324341 
	C418.125061,354.055359 418.069580,354.111176 418.069580,354.111176 
z"/>
<path fill="#0F2A51" opacity="1.000000" stroke="none" 
	d="
M116.562332,358.086365 
	C115.673569,364.348663 113.785118,366.326019 107.463303,366.786835 
	C102.533646,367.146179 97.556839,366.858765 92.275330,366.858765 
	C92.275330,361.378967 92.275330,355.993591 92.275330,349.677582 
	C98.195236,349.954956 104.246735,349.990417 110.238251,350.607910 
	C114.126183,351.008575 116.422844,353.575378 116.562332,358.086365 
M99.060081,356.672302 
	C99.060081,358.598907 99.060081,360.525513 99.060081,364.176483 
	C103.037346,362.523163 106.061584,361.471619 108.768654,359.880463 
	C109.106987,359.681549 108.236542,355.631287 107.111214,355.103638 
	C104.621605,353.936279 101.423035,352.109589 99.060081,356.672302 
z"/>
<path fill="#132D54" opacity="1.000000" stroke="none" 
	d="
M144.359467,364.607605 
	C144.350342,359.522400 144.350342,354.900970 144.350342,349.861694 
	C150.541046,349.861694 156.180725,349.725006 161.801483,349.989960 
	C162.792450,350.036682 163.704300,351.762299 164.652695,352.712616 
	C164.364563,353.083069 164.076431,353.453552 163.788315,353.824005 
	C159.832657,354.009277 155.876999,354.194550 151.220184,354.412628 
	C154.156235,359.241974 160.406036,354.063568 162.807770,359.800232 
	C158.645081,360.000732 155.288986,360.162384 151.932877,360.324036 
	C151.875824,360.973877 151.818771,361.623688 151.761719,362.273499 
	C156.039505,362.543610 160.317276,362.813690 164.814621,363.097626 
	C164.897308,364.180908 164.982742,365.300049 165.111877,366.991730 
	C158.658295,366.991730 152.387909,367.043549 146.121582,366.908020 
	C145.524292,366.895111 144.952316,365.711487 144.359467,364.607605 
z"/>
<path fill="#163157" opacity="1.000000" stroke="none" 
	d="
M215.993561,350.249329 
	C218.280060,350.088226 220.566574,349.927155 223.660812,349.709167 
	C223.660812,352.877899 223.220093,355.722290 223.820724,358.326508 
	C224.200821,359.974487 226.133743,361.264282 227.370209,362.714722 
	C228.599213,361.260742 230.497528,359.969696 230.900299,358.314667 
	C231.503876,355.834564 231.057220,353.098846 231.057220,350.165649 
	C233.506927,350.165649 235.579391,350.165649 238.255539,350.165649 
	C237.877563,355.228149 240.337372,360.946320 235.653900,364.963837 
	C231.402557,368.610748 225.923111,368.016846 220.976944,366.204010 
	C215.582916,364.227020 216.357056,359.175201 216.093994,353.947601 
	C215.998047,352.183990 215.995804,351.216675 215.993561,350.249329 
z"/>
<path fill="#132D54" opacity="1.000000" stroke="none" 
	d="
M83.318542,355.569366 
	C85.741920,359.352997 87.961960,362.825531 90.181992,366.298065 
	C90.088768,366.827240 89.995544,367.356445 89.902321,367.885620 
	C80.840538,363.700623 71.789207,362.042267 62.771473,368.507294 
	C62.635799,367.785339 62.500126,367.063385 62.364452,366.341431 
	C65.563675,361.336487 68.650238,356.254181 72.010826,351.360046 
	C73.631630,348.999542 78.932358,349.195404 80.706711,351.473541 
	C81.621437,352.647980 82.319336,353.991272 83.318542,355.569366 
z"/>
<path fill="#112C53" opacity="1.000000" stroke="none" 
	d="
M315.339661,366.988770 
	C310.671753,363.105225 305.744812,363.135345 300.059601,366.339264 
	C298.288086,367.337646 295.710266,366.905334 292.552887,367.223602 
	C296.284943,361.394135 299.387329,356.325287 302.731506,351.421295 
	C304.340088,349.062408 309.733551,349.070374 311.343506,351.433624 
	C314.683319,356.335999 317.782074,361.402588 321.367096,367.006836 
	C318.981903,367.006836 317.368866,367.006836 315.339661,366.988770 
z"/>
<path fill="#112C53" opacity="1.000000" stroke="none" 
	d="
M358.942688,365.042755 
	C361.542603,360.927643 363.951508,357.136505 366.388367,353.363373 
	C369.651123,348.311340 374.331665,348.235138 377.548767,353.201355 
	C380.171478,357.250000 382.738556,361.334717 385.317932,365.411285 
	C385.483734,365.673340 385.542908,366.002869 386.293365,368.059875 
	C382.705078,366.676544 380.211945,365.062286 377.611938,364.866333 
	C373.724640,364.573395 369.506958,364.541016 365.910095,365.785736 
	C362.877747,366.835083 360.128601,367.630219 358.942688,365.042755 
z"/>
<path fill="#102B51" opacity="1.000000" stroke="none" 
	d="
M273.701080,355.818024 
	C276.493317,356.452576 279.128967,356.515137 281.714600,356.907562 
	C282.530762,357.031433 283.212921,358.038177 283.956421,358.640808 
	C283.248505,359.105164 282.583374,359.859772 281.823486,359.971863 
	C280.359772,360.187775 278.840363,359.992950 277.347992,360.058075 
	C276.109161,360.112122 274.875916,360.294678 273.323364,361.584869 
	C274.275208,361.994629 275.208527,362.696350 276.182434,362.757996 
	C278.830017,362.925659 281.538666,362.543304 284.133118,362.951263 
	C285.322571,363.138275 286.300964,364.667358 287.375092,365.587830 
	C287.083130,365.985107 286.791138,366.382416 286.499176,366.779694 
	C279.915558,366.779694 273.331940,366.779694 266.426697,366.779694 
	C266.426697,361.321808 266.426697,355.936859 266.426697,349.872650 
	C272.177246,349.872650 277.924957,349.739655 283.654755,350.000610 
	C284.635590,350.045258 285.539825,351.771698 286.870300,353.116150 
	C281.544952,354.016998 277.535065,354.695312 273.701080,355.818024 
z"/>
<path fill="#142F56" opacity="1.000000" stroke="none" 
	d="
M121.315674,357.687347 
	C119.893623,355.071594 118.671692,352.776672 117.408264,350.403839 
	C127.503067,347.268280 125.710495,357.297516 129.841003,360.656342 
	C134.193985,357.600769 132.235123,347.314819 142.532013,350.404114 
	C139.627884,355.621796 137.195435,361.051819 133.664154,365.635254 
	C132.711227,366.872131 127.848694,366.439026 125.828751,365.141266 
	C123.729866,363.792755 122.900391,360.468445 121.315674,357.687347 
z"/>
<path fill="#112C53" opacity="1.000000" stroke="none" 
	d="
M215.543762,350.108582 
	C215.995804,351.216675 215.998047,352.183990 216.017700,353.513672 
	C213.732391,353.987030 211.429626,354.098022 208.584167,354.235199 
	C208.584167,358.407593 208.584167,362.469055 208.584167,366.765381 
	C205.937286,366.765381 203.839432,366.765381 201.229568,366.765381 
	C201.229568,362.686707 201.229568,358.611115 201.229568,354.220673 
	C198.829193,354.095001 196.911194,353.994568 194.962219,353.892548 
	C193.814865,350.975037 194.541122,349.747528 197.641922,349.826080 
	C203.456741,349.973358 209.276352,349.931213 215.543762,350.108582 
z"/>
<path fill="#0F2A51" opacity="1.000000" stroke="none" 
	d="
M418.152344,354.027039 
	C416.033295,353.998718 413.886993,353.998718 411.251526,353.998718 
	C411.251526,358.179108 411.251526,362.218140 411.251526,366.632141 
	C408.597961,366.632141 406.423920,366.632141 403.871521,366.632141 
	C403.871521,362.643738 403.871521,358.726807 403.871521,354.425354 
	C401.517273,354.199921 399.478455,354.004669 397.397980,353.805450 
	C396.477448,351.122009 396.837280,349.699310 400.077820,349.818542 
	C404.872559,349.994965 409.684448,350.006409 414.477539,349.808929 
	C417.196442,349.696930 418.036682,350.827820 417.928864,353.693298 
	C418.069580,354.111176 418.125061,354.055359 418.152344,354.027039 
z"/>
<path fill="#102B51" opacity="1.000000" stroke="none" 
	d="
M387.748291,362.881531 
	C387.748047,358.452209 387.748047,354.507812 387.748047,350.214233 
	C390.068298,350.214233 392.128021,350.214233 394.564636,350.214233 
	C394.564636,355.539429 394.564636,361.027039 394.564636,366.992340 
	C391.969757,366.059662 387.480286,369.797333 387.748291,362.881531 
z"/>
<path fill="#F9A609" opacity="1.000000" stroke="none" 
	d="
M281.400848,207.912140 
	C279.742004,208.165497 278.144836,207.915680 277.148468,208.574478 
	C273.068634,211.272034 269.172089,214.246765 264.649658,217.461334 
	C260.475891,215.107620 256.860565,212.412033 252.868973,209.794449 
	C249.754166,213.365417 247.094803,216.924820 244.243698,220.323349 
	C242.815216,222.026108 240.911087,223.325058 239.442291,224.999756 
	C235.811340,229.139679 232.439651,233.517456 228.640564,237.490616 
	C227.882263,238.283661 225.686691,237.702423 224.023178,237.441254 
	C221.046814,234.766891 218.201126,232.406189 215.355453,230.045471 
	C214.054306,230.534546 212.304413,230.648148 211.527878,231.576187 
	C207.692291,236.160217 204.195862,241.026398 200.413971,245.657623 
	C198.244919,248.313797 197.802994,253.783066 191.932495,251.121918 
	C191.268860,250.821091 189.633591,252.663773 186.929108,254.601273 
	C186.929108,231.613464 186.929108,209.735580 187.445679,187.393860 
	C190.005615,186.908951 192.048996,186.887894 194.535217,186.915070 
	C197.670593,186.919708 200.363129,186.876099 203.517487,186.868347 
	C208.965591,186.867691 213.951843,186.831177 219.403778,186.876846 
	C223.029205,186.944473 226.210495,187.151596 229.342148,186.847458 
	C231.997726,186.589554 234.595947,185.740952 237.523605,185.237305 
	C238.862503,185.470779 239.897324,185.620697 241.395905,185.875732 
	C248.168365,185.980865 254.477097,185.980865 260.785797,185.980865 
	C260.792084,185.760345 260.798340,185.539825 260.804626,185.319321 
	C257.222778,184.858078 253.640961,184.396835 250.303650,183.633972 
	C260.417816,182.253342 270.287506,181.174347 280.157166,180.095352 
	C280.151428,179.613922 280.145691,179.132507 280.139954,178.651077 
	C275.352722,178.164474 270.565521,177.677856 265.365875,177.146042 
	C256.607635,176.142014 248.261826,175.183212 239.565842,174.142319 
	C237.520386,172.714905 235.825104,171.369568 234.376221,169.776764 
	C234.527161,164.803146 230.517105,164.806030 227.495880,163.509384 
	C226.141190,162.927979 224.993042,161.865280 224.233398,161.031189 
	C236.888062,160.701233 248.747772,162.551010 260.615753,165.240448 
	C269.032715,167.147812 277.715637,166.656067 286.238525,163.950195 
	C282.398956,162.150253 278.414276,161.276794 274.564972,159.996231 
	C272.909698,159.445587 271.535370,158.050613 270.313141,156.973892 
	C270.718231,156.705841 270.843597,156.503113 270.968933,156.300385 
	C270.837433,156.238586 270.711670,156.155411 270.573547,156.118164 
	C267.965485,155.414673 265.355957,154.716614 262.746765,154.017426 
	C262.839691,153.586807 262.932617,153.156174 263.025543,152.725555 
	C266.987610,152.725555 270.949707,152.725555 275.379211,152.802933 
	C280.841370,152.829559 285.836090,152.778824 290.830811,152.728073 
	C290.789917,152.344406 290.749054,151.960739 290.708191,151.577057 
	C285.130249,151.122040 279.552338,150.667023 273.627441,150.015610 
	C272.006622,149.586090 270.621246,148.911331 269.479279,149.199890 
	C265.516022,150.201263 261.835876,149.589905 258.833862,147.055588 
	C252.003799,141.289612 244.439545,138.256836 235.402908,139.500092 
	C235.034470,139.550766 234.582443,138.994034 234.152496,138.346741 
	C234.121918,133.148544 230.603882,131.864685 226.883194,131.277161 
	C222.514297,130.587280 220.759781,133.696945 218.999146,135.983124 
	C216.445633,137.122604 213.892120,138.262085 211.089310,139.512802 
	C205.338928,135.701904 200.815048,137.012161 199.439209,143.718384 
	C198.952545,146.090515 200.039124,148.785385 200.138092,151.536835 
	C198.985199,151.878235 198.101639,152.015717 196.840332,152.110687 
	C194.571289,152.801834 192.679977,153.535492 190.788681,154.269150 
	C199.547485,130.830994 216.441772,116.746536 240.793839,112.078621 
	C262.813324,107.857819 281.642090,115.234093 298.408325,130.282547 
	C298.831207,131.140137 298.870819,131.558441 298.910400,131.976730 
	C292.346069,131.188721 285.708527,130.769699 279.242523,129.486282 
	C274.742615,128.593109 272.539581,130.428589 270.367676,134.414581 
	C280.533020,137.686554 290.369141,140.852554 300.781616,144.211182 
	C301.871185,144.512772 302.384338,144.621735 302.897491,144.730682 
	C303.048645,144.852921 303.199768,144.975143 303.691833,145.269485 
	C304.032715,145.441589 304.297577,145.575821 304.297577,145.575821 
	C304.297577,145.575821 304.565155,145.447586 304.565155,145.447586 
	C304.758606,145.548981 304.952087,145.650391 305.639191,146.124420 
	C306.783783,146.601990 307.434753,146.706955 308.085724,146.811920 
	C308.085724,146.811920 308.120911,146.905746 308.254456,147.142487 
	C308.920654,147.600449 309.453308,147.821640 309.985992,148.042847 
	C309.985992,148.042847 310.001251,147.998779 309.986206,148.302338 
	C310.303955,148.752686 310.636719,148.899460 310.969513,149.046234 
	C310.969513,149.046234 311.000000,149.000000 310.986938,149.306595 
	C311.305634,149.757721 311.637451,149.902252 311.969238,150.046783 
	C311.969238,150.046783 311.995117,149.997055 311.963257,150.367218 
	C313.292175,154.500977 314.652924,158.264542 315.980591,162.257324 
	C315.947479,162.486542 316.049652,162.938339 316.049652,162.938339 
	C316.049652,162.938339 315.873047,163.050491 315.737488,163.305389 
	C315.432007,164.018387 315.262085,164.476501 315.092133,164.934601 
	C308.744446,171.735718 302.321106,178.468597 296.092712,185.377258 
	C294.081177,187.608505 292.100159,188.331726 289.130371,187.679062 
	C284.107208,186.575104 279.011505,185.706421 273.901855,185.138046 
	C271.901428,184.915543 269.781219,185.769821 267.715576,186.133698 
	C267.603699,186.725586 267.491791,187.317474 267.379913,187.909363 
	C273.474274,191.733032 279.568604,195.556717 285.838684,199.670181 
	C284.589203,202.582230 283.163971,205.204468 281.400848,207.912140 
z"/>
<path fill="#ADC2DB" opacity="1.000000" stroke="none" 
	d="
M186.716232,262.088501 
	C182.524033,264.264618 178.162949,266.062561 173.438354,267.901428 
	C172.050964,260.563080 170.255737,253.195496 170.143173,245.802277 
	C169.755295,220.329559 169.672638,194.844025 170.020599,169.370850 
	C170.298508,149.026627 179.210037,132.106857 193.133469,117.822754 
	C225.525406,84.591736 274.959167,82.885910 309.602539,113.786087 
	C314.373413,118.041466 318.211151,123.342979 323.168152,128.935486 
	C316.546539,128.639557 313.896484,137.807755 307.916290,131.737564 
	C306.379211,130.730072 304.805328,129.773743 303.315125,128.701111 
	C301.737488,127.565552 300.165771,126.401970 298.717468,125.109444 
	C263.717163,93.873917 209.835449,104.355164 189.751892,146.673981 
	C186.546829,153.427490 184.200684,161.250458 183.999771,168.648056 
	C183.299500,194.433258 183.561249,220.250397 183.836349,246.051361 
	C183.892090,251.280060 185.600708,256.491150 186.716232,262.088501 
z"/>
<path fill="#ACC1DA" opacity="1.000000" stroke="none" 
	d="
M187.168121,293.258057 
	C190.987137,290.569092 194.906540,288.201172 199.108170,285.670044 
	C217.362106,304.572998 239.148209,313.024597 265.198914,308.186096 
	C297.452423,302.195526 320.575958,274.160828 320.823181,241.266891 
	C320.962128,222.781097 320.973907,204.291809 320.748016,185.807693 
	C320.696320,181.578064 321.460907,178.338593 325.918549,176.079391 
	C326.657501,175.569794 326.866577,175.323303 327.075653,175.076813 
	C327.075653,175.076828 326.998962,175.006943 327.337524,175.039124 
	C328.099762,174.686691 328.523438,174.302094 328.947083,173.917496 
	C328.947083,173.917496 329.009460,173.979156 329.240845,173.934418 
	C329.674622,173.620590 329.877045,173.351517 330.079468,173.082458 
	C330.079468,173.082458 329.996918,173.085159 330.383301,173.156708 
	C332.190826,174.160873 333.611938,175.093506 335.033051,176.026138 
	C334.964905,198.650085 334.290924,221.291687 334.949371,243.894455 
	C336.528564,298.103790 280.735016,338.124908 230.270844,322.940491 
	C212.921555,317.720154 198.703094,307.613495 187.168121,293.258057 
z"/>
<path fill="#427CAF" opacity="1.000000" stroke="none" 
	d="
M299.145142,242.443695 
	C299.359314,242.929047 299.573486,243.414383 299.784271,244.464310 
	C301.165009,247.694107 302.549164,250.359314 303.951233,253.294327 
	C304.107178,253.815796 304.245239,254.067459 304.383301,254.319107 
	C304.566589,253.872559 304.749847,253.425995 305.257263,253.092010 
	C308.403961,254.523758 308.201782,260.806671 313.514740,258.038757 
	C313.514740,258.038757 313.646057,257.973419 313.638000,258.004608 
	C313.959137,265.980896 308.002289,276.457855 302.882996,277.962769 
	C302.334534,279.987671 302.376526,281.939453 301.426758,283.017090 
	C290.495209,295.420258 276.845337,303.169952 260.428711,305.303345 
	C258.175385,305.596161 255.475098,302.449646 252.981750,300.895477 
	C253.118683,300.424957 253.255615,299.954407 253.392548,299.483856 
	C255.394211,299.273529 257.395905,299.063171 260.716217,298.714233 
	C257.852478,296.373566 255.731934,294.640350 253.611404,292.907135 
	C253.698868,292.525177 253.786331,292.143219 253.873810,291.761261 
	C256.960846,292.222382 260.047913,292.683472 263.751038,293.378998 
	C265.052887,293.645416 265.738678,293.677429 266.424438,293.709442 
	C266.463776,293.487915 266.503113,293.266418 266.542450,293.044922 
	C265.693481,292.760254 264.844543,292.475616 263.995575,292.190948 
	C259.553955,290.216858 255.112335,288.242798 250.670731,286.268707 
	C250.808975,285.818054 250.947235,285.367371 251.085495,284.916718 
	C255.166977,285.338745 259.248474,285.760803 263.329956,286.182861 
	C263.558838,285.753326 263.787689,285.323822 264.016571,284.894318 
	C262.596832,283.862823 261.177063,282.831329 259.160248,281.366028 
	C261.218628,281.056000 262.555695,280.854614 265.100464,280.471313 
	C262.344055,278.319794 260.364502,276.774658 258.008850,274.935944 
	C259.002411,274.280334 259.823486,273.738586 261.287537,272.772552 
	C258.085999,269.893646 255.070404,267.182007 251.702560,264.153595 
	C258.575134,259.764191 252.544144,255.250137 252.568741,250.579147 
	C248.250610,254.037308 244.593048,257.917480 240.142502,260.342133 
	C229.291428,266.253876 222.920486,276.974915 213.369980,284.233063 
	C209.678085,287.038818 206.518707,288.439301 202.932312,283.685120 
	C226.649323,267.125641 247.681015,247.645828 267.477112,226.461731 
	C269.445892,228.269928 270.998291,229.916534 272.840363,231.870392 
	C266.869476,237.146317 258.384827,240.402878 256.311951,249.966064 
	C258.276581,251.461288 260.478973,253.137512 263.258636,255.253052 
	C261.569702,256.177002 260.128540,256.965424 258.417023,257.901733 
	C259.556519,259.993500 260.792908,262.263153 261.685760,263.902161 
	C267.118805,260.417023 266.942719,266.894775 269.181854,267.367279 
	C274.420563,265.588501 277.063110,269.934967 281.651093,272.071411 
	C281.731415,267.011230 280.535187,261.340759 288.033508,259.416748 
	C281.385468,255.939102 287.720337,254.365463 287.858124,251.928055 
	C286.454315,251.261246 285.244843,250.686737 284.442017,250.305389 
	C287.077698,245.314453 289.510925,240.706802 292.034363,235.928406 
	C294.104736,237.553940 295.632629,238.753571 297.160522,239.953186 
	C297.160522,239.953186 297.074371,239.955093 297.069580,240.282990 
	C297.758270,241.221832 298.451721,241.832764 299.145142,242.443695 
M266.421082,280.920227 
	C266.095215,281.090973 265.769379,281.261719 265.443542,281.432495 
	C265.938538,281.686951 266.433502,281.941406 267.234772,282.577026 
	C267.640625,282.501831 268.046478,282.426605 268.452332,282.351410 
	C267.967133,281.956055 267.481934,281.560699 266.421082,280.920227 
z"/>
<path fill="#6EB2BA" opacity="1.000000" stroke="none" 
	d="
M218.938110,186.794678 
	C213.951843,186.831177 208.965591,186.867691 203.497955,186.576416 
	C203.039322,185.860580 203.062073,185.472534 203.491425,185.071991 
	C205.645126,185.059494 207.392242,185.059494 209.139343,185.059494 
	C209.162079,184.347778 209.184814,183.636078 209.207550,182.924362 
	C201.839600,182.924362 194.471664,182.924362 187.103714,182.924362 
	C187.058640,182.192383 187.013565,181.460403 187.428955,180.364288 
	C192.283203,180.482346 194.179092,177.932327 195.312195,173.911621 
	C198.246033,171.222794 200.628830,168.314285 203.640915,166.391632 
	C205.955383,164.914276 209.062393,164.678574 212.233551,163.923553 
	C217.162720,162.832397 221.328232,162.775970 224.657181,166.903046 
	C225.308380,167.710373 227.049622,167.605484 228.262405,168.000290 
	C230.229385,168.640579 232.175125,169.346191 234.129822,170.024231 
	C235.825104,171.369568 237.520386,172.714905 239.637543,174.459900 
	C241.028214,176.226974 241.997009,177.594421 242.659393,179.038605 
	C241.786331,179.814407 241.219696,180.513474 240.653061,181.212524 
	C242.098236,181.811401 243.543396,182.410278 244.782410,183.270309 
	C243.361557,184.277847 242.146851,185.024216 240.932159,185.770599 
	C239.897324,185.620697 238.862503,185.470779 237.044785,185.143494 
	C231.686691,184.996719 227.105621,184.909378 222.540161,185.136337 
	C221.315033,185.197250 220.137497,186.215759 218.938110,186.794678 
z"/>
<path fill="#F4A710" opacity="1.000000" stroke="none" 
	d="
M211.816956,163.890717 
	C209.062393,164.678574 205.955383,164.914276 203.640915,166.391632 
	C200.628830,168.314285 198.246033,171.222794 194.910248,173.803406 
	C191.854858,174.302277 189.481628,174.704788 187.108398,175.107300 
	C187.916031,169.270905 188.723679,163.434525 190.219360,157.322113 
	C199.587494,156.378189 208.267624,155.710297 216.952820,155.050751 
	C216.957886,155.059097 216.935440,155.060287 216.679382,155.316330 
	C211.993469,157.098007 207.563599,158.623627 203.133728,160.149246 
	C203.225433,160.436218 203.317154,160.723175 203.408875,161.010147 
	C206.562439,161.010147 209.716019,161.010147 212.813904,161.312927 
	C212.444489,162.374054 212.130722,163.132385 211.816956,163.890717 
z"/>
<path fill="#407BAE" opacity="1.000000" stroke="none" 
	d="
M215.155518,230.355408 
	C218.201126,232.406189 221.046814,234.766891 224.068970,237.811890 
	C223.999878,240.018509 223.754288,241.540833 223.508682,243.063141 
	C219.863678,245.471481 216.364273,248.147812 212.539719,250.225601 
	C206.742371,253.375168 200.718948,256.108582 194.417587,259.032349 
	C197.277863,256.427216 200.138733,252.645477 203.832932,251.459473 
	C209.532776,249.629562 213.528870,247.265991 214.324463,240.486862 
	C214.313354,239.983017 214.120590,239.950287 213.927826,239.917572 
	C211.661255,240.250381 210.797729,239.514572 211.872070,237.254105 
	C212.912949,235.064041 213.928757,232.862061 215.155518,230.355408 
z"/>
<path fill="#C3AB4F" opacity="1.000000" stroke="none" 
	d="
M216.947739,155.042404 
	C208.267624,155.710297 199.587494,156.378189 190.449463,157.039185 
	C190.115097,156.246063 190.238632,155.459824 190.575424,154.471375 
	C192.679977,153.535492 194.571289,152.801834 197.139084,152.371674 
	C202.915848,152.813889 208.024490,152.829437 213.110626,153.175705 
	C214.425919,153.265259 215.670609,154.392059 216.947739,155.042404 
z"/>
<path fill="#ABAD6C" opacity="1.000000" stroke="none" 
	d="
M187.024139,183.321533 
	C194.471664,182.924362 201.839600,182.924362 209.207550,182.924362 
	C209.184814,183.636078 209.162079,184.347778 209.139343,185.059494 
	C207.392242,185.059494 205.645126,185.059494 203.070068,185.041901 
	C199.525543,185.638489 196.808960,186.252655 194.092377,186.866821 
	C192.048996,186.887894 190.005615,186.908951 187.526306,186.926300 
	C187.041779,185.854645 186.993164,184.786682 187.024139,183.321533 
z"/>
<path fill="#406F99" opacity="1.000000" stroke="none" 
	d="
M316.013702,162.028107 
	C314.652924,158.264542 313.292175,154.500977 311.942780,150.386810 
	C315.222412,152.256241 318.490662,154.476242 321.758942,156.696259 
	C322.135742,157.383667 322.512512,158.071075 322.889313,158.758484 
	C321.100525,159.827927 319.311737,160.897354 316.999298,162.052307 
	C316.475647,162.137802 316.013702,162.028107 316.013702,162.028107 
z"/>
<path fill="#8BB096" opacity="1.000000" stroke="none" 
	d="
M187.036804,175.509689 
	C189.481628,174.704788 191.854858,174.302277 194.630051,174.007996 
	C194.179092,177.932327 192.283203,180.482346 187.497055,180.002319 
	C187.058197,178.640366 187.011703,177.276215 187.036804,175.509689 
z"/>
<path fill="#3E77A9" opacity="1.000000" stroke="none" 
	d="
M335.374207,176.044815 
	C333.611938,175.093506 332.190826,174.160873 330.423035,173.169632 
	C330.919373,172.090393 331.762360,171.069778 333.605042,168.838730 
	C334.555786,172.093689 335.135559,174.078598 335.374207,176.044815 
z"/>
<path fill="#ADC2DB" opacity="1.000000" stroke="none" 
	d="
M322.281616,130.198669 
	C323.535492,131.398788 324.523804,132.881302 325.831604,134.843048 
	C323.720245,134.843048 322.294830,134.843048 320.813873,134.843048 
	C321.249329,133.262985 321.632690,131.872009 322.281616,130.198669 
z"/>
<path fill="#112B51" opacity="1.000000" stroke="none" 
	d="
M263.987427,292.443909 
	C264.844543,292.475616 265.693481,292.760254 266.542450,293.044922 
	C266.503113,293.266418 266.463776,293.487915 266.424438,293.709442 
	C265.738678,293.677429 265.052887,293.645416 264.160217,293.407837 
	C263.961945,293.033844 263.970581,292.865356 263.987427,292.443909 
z"/>
<path fill="#3E77A9" opacity="1.000000" stroke="none" 
	d="
M340.728638,181.277451 
	C340.144836,180.773697 339.561005,180.269943 339.025146,179.341370 
	C339.073120,178.916534 339.360199,178.622803 339.360199,178.622803 
	C339.917999,179.162888 340.475800,179.702972 340.996155,180.645782 
	C340.958679,181.048508 340.728638,181.277451 340.728638,181.277451 
z"/>
<path fill="#3E77A9" opacity="1.000000" stroke="none" 
	d="
M342.080475,181.910141 
	C342.342896,182.422043 342.639008,182.921417 342.838654,183.456726 
	C342.877502,183.560867 342.541016,183.804993 342.377655,183.984558 
	C342.194672,183.565979 342.011688,183.147400 341.888214,182.388367 
	C341.947693,182.047913 342.080475,181.910141 342.080475,181.910141 
z"/>
<path fill="#112B51" opacity="1.000000" stroke="none" 
	d="
M299.130035,131.816162 
	C298.870819,131.558441 298.831207,131.140137 298.702942,130.416229 
	C298.859436,130.625595 299.104553,131.140594 299.130035,131.816162 
z"/>
<path fill="#112B51" opacity="1.000000" stroke="none" 
	d="
M302.702820,144.547302 
	C302.384338,144.621735 301.871185,144.512772 301.156860,144.228363 
	C301.473145,144.156555 301.990631,144.260239 302.702820,144.547302 
z"/>
<path fill="#406F99" opacity="1.000000" stroke="none" 
	d="
M307.889587,146.552063 
	C307.434753,146.706955 306.783783,146.601990 305.958466,146.198044 
	C306.420563,146.030106 307.056976,146.161148 307.889587,146.552063 
z"/>
<path fill="#406F99" opacity="1.000000" stroke="none" 
	d="
M309.923645,147.734390 
	C309.453308,147.821640 308.920654,147.600449 308.268860,147.094513 
	C308.720245,147.015167 309.290741,147.220551 309.923645,147.734390 
z"/>
<path fill="#112B51" opacity="1.000000" stroke="none" 
	d="
M315.295776,164.784012 
	C315.262085,164.476501 315.432007,164.018387 315.784546,163.398819 
	C315.811249,163.702713 315.655365,164.168060 315.295776,164.784012 
z"/>
<path fill="#3E77A9" opacity="1.000000" stroke="none" 
	d="
M328.643555,173.924469 
	C328.523438,174.302094 328.099762,174.686691 327.368927,175.080627 
	C327.487854,174.703781 327.913971,174.317596 328.643555,173.924469 
z"/>
<path fill="#3E77A9" opacity="1.000000" stroke="none" 
	d="
M338.926514,179.060333 
	C338.609894,178.957855 338.439850,178.711563 338.269836,178.465271 
	C338.523376,178.406647 338.776947,178.348007 339.195374,178.456085 
	C339.360199,178.622803 339.073120,178.916534 338.926514,179.060333 
z"/>
<path fill="#112B51" opacity="1.000000" stroke="none" 
	d="
M304.500610,145.335968 
	C304.565155,145.447586 304.297577,145.575821 304.297577,145.575821 
	C304.297577,145.575821 304.032715,145.441589 303.981689,145.301010 
	C304.107910,145.113159 304.276367,145.134476 304.500610,145.335968 
z"/>
<path fill="#406F99" opacity="1.000000" stroke="none" 
	d="
M310.958923,148.755585 
	C310.636719,148.899460 310.303955,148.752686 309.965332,148.312805 
	C310.289154,148.168106 310.618744,148.316513 310.958923,148.755585 
z"/>
<path fill="#406F99" opacity="1.000000" stroke="none" 
	d="
M311.957458,149.756088 
	C311.637451,149.902252 311.305634,149.757721 310.963715,149.321747 
	C311.284302,149.175323 311.614990,149.320358 311.957458,149.756088 
z"/>
<path fill="#112B51" opacity="1.000000" stroke="none" 
	d="
M315.980591,162.257324 
	C316.013702,162.028107 316.475647,162.137802 316.698608,162.218674 
	C316.788818,162.512970 316.613525,162.682404 316.222717,162.873093 
	C316.049652,162.938339 315.947479,162.486542 315.980591,162.257324 
z"/>
<path fill="#3E77A9" opacity="1.000000" stroke="none" 
	d="
M329.808289,173.091888 
	C329.877045,173.351517 329.674622,173.620590 329.203094,173.912857 
	C329.135040,173.657806 329.336060,173.379562 329.808289,173.091888 
z"/>
<path fill="#3E77A9" opacity="1.000000" stroke="none" 
	d="
M326.821350,175.108383 
	C326.866577,175.323303 326.657501,175.569794 326.203918,175.872162 
	C326.161957,175.665359 326.364502,175.402649 326.821350,175.108383 
z"/>
<path fill="#427CAF" opacity="1.000000" stroke="none" 
	d="
M256.518494,273.516785 
	C256.495605,273.478302 256.541382,273.555237 256.518494,273.516785 
z"/>
<path fill="#3E77A9" opacity="1.000000" stroke="none" 
	d="
M341.074738,180.935089 
	C341.501648,180.952377 341.740875,181.164032 341.994507,181.683380 
	C342.080475,181.910141 341.947693,182.047913 341.877258,182.118637 
	C341.481537,182.107910 341.212769,181.937408 340.864563,181.477661 
	C340.728638,181.277451 340.958679,181.048508 341.074738,180.935089 
z"/>
<path fill="#407BAE" opacity="1.000000" stroke="none" 
	d="
M193.801575,259.125793 
	C193.930359,259.370361 193.732239,259.619507 193.218079,259.889923 
	C193.081665,259.648346 193.272537,259.388092 193.801575,259.125793 
z"/>
<path fill="#0F2A50" opacity="1.000000" stroke="none" 
	d="
M297.479553,239.665787 
	C295.632629,238.753571 294.104736,237.553940 292.034363,235.928406 
	C289.510925,240.706802 287.077698,245.314453 284.442017,250.305389 
	C285.244843,250.686737 286.454315,251.261246 287.858124,251.928055 
	C287.720337,254.365463 281.385468,255.939102 288.033508,259.416748 
	C280.535187,261.340759 281.731415,267.011230 281.651093,272.071411 
	C277.063110,269.934967 274.420563,265.588501 269.181854,267.367279 
	C266.942719,266.894775 267.118805,260.417023 261.685760,263.902161 
	C260.792908,262.263153 259.556519,259.993500 258.417023,257.901733 
	C260.128540,256.965424 261.569702,256.177002 263.258636,255.253052 
	C260.478973,253.137512 258.276581,251.461288 256.311951,249.966064 
	C258.384827,240.402878 266.869476,237.146317 272.840363,231.870392 
	C270.998291,229.916534 269.445892,228.269928 267.748047,226.298096 
	C269.161530,226.351822 270.892883,226.425690 272.236725,227.185211 
	C274.007141,228.185791 275.473145,229.725021 277.014343,231.534973 
	C276.958679,232.037277 276.651062,232.336639 276.422333,232.176941 
	C275.473297,235.350464 274.752960,238.683716 273.914978,242.076111 
	C273.855133,242.077438 273.912933,242.019623 274.354370,242.023438 
	C276.565033,241.346008 278.392059,240.606949 280.099396,239.916321 
	C279.063232,237.205917 278.324219,235.272720 277.727936,233.219818 
	C277.870697,233.100113 278.153015,232.856918 278.153015,232.856918 
	C279.551361,234.437027 280.949738,236.017136 282.080750,237.295151 
	C285.989624,235.932678 289.291809,233.949966 292.580658,233.971924 
	C294.331909,233.983597 296.060028,237.463776 297.479553,239.665787 
z"/>
<path fill="#0F2A51" opacity="1.000000" stroke="none" 
	d="
M313.316254,257.739655 
	C308.201782,260.806671 308.403961,254.523758 305.007446,253.102966 
	C304.266724,253.009064 304.100037,253.016785 303.933319,253.024506 
	C302.549164,250.359314 301.165009,247.694107 299.609253,244.625015 
	C300.530792,244.504257 302.021301,244.429672 302.651367,245.129639 
	C306.253448,249.131317 309.650848,253.317215 313.316254,257.739655 
z"/>
<path fill="#112B51" opacity="1.000000" stroke="none" 
	d="
M299.440613,242.066635 
	C298.451721,241.832764 297.758270,241.221832 297.076233,240.240417 
	C297.970490,240.476501 298.853271,241.083038 299.440613,242.066635 
z"/>
<path fill="#0F2A50" opacity="1.000000" stroke="none" 
	d="
M277.111511,231.886627 
	C277.516876,231.946381 277.769470,232.156815 278.087524,232.612091 
	C278.153015,232.856918 277.870697,233.100113 277.559784,233.065735 
	C277.024231,232.821625 276.824951,232.590057 276.651062,232.336639 
	C276.651062,232.336639 276.958679,232.037277 277.111511,231.886627 
z"/>
<path fill="#3B79AD" opacity="1.000000" stroke="none" 
	d="
M253.245209,209.716446 
	C256.860565,212.412033 260.475891,215.107620 264.433777,217.709656 
	C260.578339,221.053162 256.380371,224.490234 251.500702,227.992401 
	C250.215790,228.394424 249.612564,228.731354 249.009338,229.068268 
	C249.009338,229.068268 249.040527,229.012985 249.067352,229.029541 
	C248.251770,229.331543 247.409393,229.617004 246.306824,229.589172 
	C248.706345,226.191254 251.366043,223.106613 254.165787,219.991119 
	C254.199097,219.967514 254.092346,219.974747 253.606339,219.971893 
	C252.473358,219.960648 251.719635,219.959488 250.981400,219.975082 
	C250.996872,219.991837 251.033310,220.019073 251.168488,219.710831 
	C251.950867,216.173874 252.598038,212.945160 253.245209,209.716446 
z"/>
<path fill="#2F96D8" opacity="1.000000" stroke="none" 
	d="
M249.366913,229.190781 
	C249.612564,228.731354 250.215790,228.394424 251.184570,228.043442 
	C250.941605,228.457352 250.333054,228.885315 249.366913,229.190781 
z"/>
<path fill="#132D50" opacity="1.000000" stroke="none" 
	d="
M254.025726,220.021942 
	C251.366043,223.106613 248.706345,226.191254 245.972992,229.609528 
	C238.704865,234.377258 231.510406,238.811386 223.912323,243.154327 
	C223.754288,241.540833 223.999878,240.018509 224.199677,238.125534 
	C225.686691,237.702423 227.882263,238.283661 228.640564,237.490616 
	C232.439651,233.517456 235.811340,229.139679 239.442291,224.999756 
	C240.911087,223.325058 242.815216,222.026108 244.243698,220.323349 
	C247.094803,216.924820 249.754166,213.365417 252.868958,209.794449 
	C252.598038,212.945160 251.950867,216.173874 251.043884,219.769852 
	C250.844696,220.077515 250.905319,220.017929 250.965942,219.958344 
	C251.719635,219.959488 252.473358,219.960648 253.615326,219.982422 
	C254.003586,220.003052 254.025726,220.021942 254.025726,220.021942 
z"/>
<path fill="#BAD2F4" opacity="1.000000" stroke="none" 
	d="
M248.006592,355.064819 
	C250.989227,354.627045 253.900330,354.627045 257.598969,354.627045 
	C253.767517,358.926849 249.677826,358.911804 248.006592,355.064819 
z"/>
<path fill="#BAD2F4" opacity="1.000000" stroke="none" 
	d="
M99.068069,356.223755 
	C101.423035,352.109589 104.621605,353.936279 107.111214,355.103638 
	C108.236542,355.631287 109.106987,359.681549 108.768654,359.880463 
	C106.061584,361.471619 103.037346,362.523163 99.060081,364.176483 
	C99.060081,360.525513 99.060081,358.598907 99.068069,356.223755 
z"/>
<path fill="#76B1B0" opacity="1.000000" stroke="none" 
	d="
M216.952820,155.050751 
	C215.670609,154.392059 214.425919,153.265259 213.110626,153.175705 
	C208.024490,152.829437 202.915848,152.813889 197.516846,152.414154 
	C198.101639,152.015717 198.985199,151.878235 200.539551,151.504028 
	C206.912949,150.502899 212.891907,150.420074 216.882156,145.243988 
	C221.311523,139.498245 226.824341,136.701660 234.169373,138.720306 
	C234.582443,138.994034 235.034470,139.550766 235.402908,139.500092 
	C244.439545,138.256836 252.003799,141.289612 258.833862,147.055588 
	C261.835876,149.589905 265.516022,150.201263 269.479279,149.199890 
	C270.621246,148.911331 272.006622,149.586090 273.741028,150.263214 
	C274.438354,151.380005 274.675079,152.052780 274.911804,152.725555 
	C270.949707,152.725555 266.987610,152.725555 263.025543,152.725555 
	C262.932617,153.156174 262.839691,153.586807 262.746765,154.017426 
	C265.355957,154.716614 267.965485,155.414673 270.573547,156.118164 
	C270.711670,156.155411 270.837433,156.238586 270.968933,156.300385 
	C270.843597,156.503113 270.718231,156.705841 269.843262,156.935547 
	C251.707565,156.328461 234.321503,155.694382 216.935440,155.060287 
	C216.935440,155.060287 216.957886,155.059097 216.952820,155.050751 
z"/>
<path fill="#C8AB49" opacity="1.000000" stroke="none" 
	d="
M216.679382,155.316330 
	C234.321503,155.694382 251.707565,156.328461 269.563507,157.000885 
	C271.535370,158.050613 272.909698,159.445587 274.564972,159.996231 
	C278.414276,161.276794 282.398956,162.150253 286.238525,163.950195 
	C277.715637,166.656067 269.032715,167.147812 260.615753,165.240448 
	C248.747772,162.551010 236.888062,160.701233 223.903107,161.055298 
	C222.042130,161.049026 220.405014,161.450531 220.039902,160.940857 
	C217.501266,157.396988 215.227844,159.652267 212.869583,161.010147 
	C209.716019,161.010147 206.562439,161.010147 203.408875,161.010147 
	C203.317154,160.723175 203.225433,160.436218 203.133728,160.149246 
	C207.563599,158.623627 211.993469,157.098007 216.679382,155.316330 
z"/>
<path fill="#C8AB49" opacity="1.000000" stroke="none" 
	d="
M234.152496,138.346741 
	C226.824341,136.701660 221.311523,139.498245 216.882156,145.243988 
	C212.891907,150.420074 206.912949,150.502899 200.808884,151.300110 
	C200.039124,148.785385 198.952545,146.090515 199.439209,143.718384 
	C200.815048,137.012161 205.338928,135.701904 211.089310,139.512802 
	C213.892120,138.262085 216.445633,137.122604 218.999146,135.983124 
	C220.759781,133.696945 222.514297,130.587280 226.883194,131.277161 
	C230.603882,131.864685 234.121918,133.148544 234.152496,138.346741 
z"/>
<path fill="#C3AB4F" opacity="1.000000" stroke="none" 
	d="
M244.988571,183.009155 
	C243.543396,182.410278 242.098236,181.811401 240.653061,181.212524 
	C241.219696,180.513474 241.786331,179.814407 243.085022,179.060791 
	C247.072708,178.673828 250.323959,178.287460 253.585098,178.022705 
	C257.645233,177.693085 261.713531,177.463837 265.778290,177.191254 
	C270.565521,177.677856 275.352722,178.164474 280.139954,178.651077 
	C280.145691,179.132507 280.151428,179.613922 280.157166,180.095352 
	C270.287506,181.174347 260.417816,182.253342 249.929901,183.671082 
	C247.870636,183.676254 246.429596,183.342712 244.988571,183.009155 
z"/>
<path fill="#8BB096" opacity="1.000000" stroke="none" 
	d="
M212.813904,161.312927 
	C215.227844,159.652267 217.501266,157.396988 220.039902,160.940857 
	C220.405014,161.450531 222.042130,161.049026 223.420868,161.045074 
	C224.993042,161.865280 226.141190,162.927979 227.495880,163.509384 
	C230.517105,164.806030 234.527161,164.803146 234.376221,169.776764 
	C232.175125,169.346191 230.229385,168.640579 228.262405,168.000290 
	C227.049622,167.605484 225.308380,167.710373 224.657181,166.903046 
	C221.328232,162.775970 217.162720,162.832397 212.233536,163.923553 
	C212.130722,163.132385 212.444489,162.374054 212.813904,161.312927 
z"/>
<path fill="#96AF88" opacity="1.000000" stroke="none" 
	d="
M265.365875,177.146042 
	C261.713531,177.463837 257.645233,177.693085 253.585098,178.022705 
	C250.323959,178.287460 247.072708,178.673828 243.391434,178.984039 
	C241.997009,177.594421 241.028214,176.226974 239.987717,174.541962 
	C248.261826,175.183212 256.607635,176.142014 265.365875,177.146042 
z"/>
<path fill="#96AF88" opacity="1.000000" stroke="none" 
	d="
M275.379211,152.802933 
	C274.675079,152.052780 274.438354,151.380005 274.088013,150.459625 
	C279.552338,150.667023 285.130249,151.122040 290.708191,151.577057 
	C290.749054,151.960739 290.789917,152.344406 290.830811,152.728073 
	C285.836090,152.778824 280.841370,152.829559 275.379211,152.802933 
z"/>
<path fill="#91AF8E" opacity="1.000000" stroke="none" 
	d="
M244.782410,183.270309 
	C246.429596,183.342712 247.870636,183.676254 249.685394,183.972687 
	C253.640961,184.396835 257.222778,184.858078 260.804626,185.319321 
	C260.798340,185.539825 260.792084,185.760345 260.785797,185.980865 
	C254.477097,185.980865 248.168365,185.980865 241.395905,185.875732 
	C242.146851,185.024216 243.361557,184.277847 244.782410,183.270309 
z"/>
<path fill="#91AF8E" opacity="1.000000" stroke="none" 
	d="
M219.403778,186.876846 
	C220.137497,186.215759 221.315033,185.197250 222.540161,185.136337 
	C227.105621,184.909378 231.686691,184.996719 236.740723,185.059937 
	C234.595947,185.740952 231.997726,186.589554 229.342148,186.847458 
	C226.210495,187.151596 223.029205,186.944473 219.403778,186.876846 
z"/>
<path fill="#91AF8E" opacity="1.000000" stroke="none" 
	d="
M194.535217,186.915070 
	C196.808960,186.252655 199.525543,185.638489 202.663467,185.054382 
	C203.062073,185.472534 203.039322,185.860580 203.036133,186.540558 
	C200.363129,186.876099 197.670593,186.919708 194.535217,186.915070 
z"/>
<path fill="#112B51" opacity="1.000000" stroke="none" 
	d="
M266.996735,281.165344 
	C267.481934,281.560699 267.967133,281.956055 268.452332,282.351410 
	C268.046478,282.426605 267.640625,282.501831 267.103516,282.128479 
	C266.980377,281.508392 266.988556,281.336884 266.996735,281.165344 
z"/>
<path fill="#0F2A51" opacity="1.000000" stroke="none" 
	d="
M266.708923,281.042786 
	C266.988556,281.336884 266.980377,281.508392 266.950378,281.937927 
	C266.433502,281.941406 265.938538,281.686951 265.443542,281.432495 
	C265.769379,281.261719 266.095215,281.090973 266.708923,281.042786 
z"/>
<path fill="#112B51" opacity="1.000000" stroke="none" 
	d="
M303.951233,253.294327 
	C304.100037,253.016785 304.266724,253.009064 304.683289,252.990387 
	C304.749847,253.425995 304.566589,253.872559 304.383301,254.319107 
	C304.245239,254.067459 304.107178,253.815796 303.951233,253.294327 
z"/>
<path fill="#0F2A51" opacity="1.000000" stroke="none" 
	d="
M213.996323,239.988007 
	C214.120590,239.950287 214.313354,239.983017 214.355743,240.105743 
	C214.205368,240.195755 214.064819,240.058426 213.996323,239.988007 
z"/>
<path fill="#3E77A9" opacity="1.000000" stroke="none" 
	d="
M276.422333,232.176941 
	C276.824951,232.590057 277.024231,232.821625 277.417023,233.185425 
	C278.324219,235.272720 279.063232,237.205917 280.099396,239.916321 
	C278.392059,240.606949 276.565033,241.346008 274.368286,242.039062 
	C273.998566,241.993057 274.032623,242.016953 274.032623,242.016953 
	C274.752960,238.683716 275.473297,235.350464 276.422333,232.176941 
z"/>
<path fill="#3E77A9" opacity="1.000000" stroke="none" 
	d="
M273.984680,241.977448 
	C273.912933,242.019623 273.855133,242.077438 273.914978,242.076111 
	C274.032623,242.016953 273.998566,241.993057 273.984680,241.977448 
z"/>
<path fill="#132D50" opacity="1.000000" stroke="none" 
	d="
M253.994598,219.992523 
	C254.092346,219.974747 254.199097,219.967514 254.165771,219.991119 
	C254.025726,220.021942 254.003586,220.003052 253.994598,219.992523 
z"/>
<path fill="#3B79AD" opacity="1.000000" stroke="none" 
	d="
M250.981415,219.975098 
	C250.905319,220.017929 250.844696,220.077515 250.908691,220.078094 
	C251.033310,220.019073 250.996872,219.991837 250.981415,219.975098 
z"/>
</svg>